<?xml version="1.0" standalone="no"?>
<!DOCTYPE svg PUBLIC "-//W3C//DTD SVG 20010904//EN"
 "http://www.w3.org/TR/2001/REC-SVG-20010904/DTD/svg10.dtd">
<svg version="1.0" xmlns="http://www.w3.org/2000/svg"
 width="800.000000pt" height="800.000000pt" viewBox="0 0 800.000000 800.000000"
 preserveAspectRatio="xMidYMid meet">
<metadata>
Created by potrace 1.14, written by Peter Selinger 2001-2017
</metadata>
<g transform="translate(0.000000,800.000000) scale(0.100000,-0.100000)"
fill="#000000" stroke="none">
<path d="M4210 6909 c-273 -35 -608 -154 -760 -268 -30 -23 -66 -44 -80 -47
-148 -30 -281 -78 -435 -157 l-100 -52 -89 22 c-136 35 -246 47 -421 47 -185
1 -264 -11 -420 -63 -161 -53 -252 -108 -366 -221 -150 -148 -207 -275 -217
-476 -6 -134 11 -219 67 -345 l38 -86 -25 -49 c-120 -236 -221 -550 -272 -849
-39 -222 -43 -679 -10 -927 41 -304 137 -612 275 -889 88 -174 143 -262 283
-449 388 -518 1005 -929 1639 -1091 282 -72 378 -83 718 -83 320 -1 385 5 650
61 510 106 1020 383 1414 768 247 242 426 486 570 780 199 405 293 794 308
1270 17 551 -125 1115 -398 1578 -105 179 -248 392 -318 474 -58 69 -61 75
-61 126 0 151 -183 331 -350 345 -47 4 -64 12 -130 62 -96 73 -203 140 -223
140 -8 0 -39 21 -69 46 -196 168 -474 287 -771 329 -109 16 -341 18 -447 4z
m464 -209 c414 -71 726 -299 856 -624 95 -236 121 -549 69 -831 -10 -58 -88
-346 -95 -354 -2 -2 -56 45 -121 104 -140 129 -297 258 -448 370 -414 308
-1030 637 -1565 838 -58 21 -108 42 -113 46 -4 4 21 30 55 57 295 236 541 346
918 407 80 13 336 6 444 -13z m-2154 -451 c276 -35 612 -139 1054 -329 224
-96 409 -188 652 -325 185 -104 556 -343 571 -368 4 -6 -6 -3 -22 7 -51 34
-269 162 -347 205 -80 44 -98 49 -98 27 0 -8 -5 -16 -11 -18 -25 -8 419 -272
661 -393 97 -48 236 -135 218 -135 -3 0 -50 18 -104 41 -164 68 -413 199 -714
375 -555 325 -881 481 -1297 624 -445 153 -769 179 -1049 87 -177 -58 -295
-179 -323 -329 -17 -95 16 -231 78 -322 97 -141 320 -295 522 -361 30 -10 57
-19 61 -22 4 -2 -8 -28 -27 -58 -19 -30 -35 -59 -35 -65 0 -17 -25 -12 -107
21 -257 102 -416 213 -541 378 -257 341 -144 748 251 901 185 72 360 89 607
59z m3243 -92 c31 -27 57 -54 57 -61 0 -6 17 -40 38 -76 169 -292 244 -647
198 -945 -20 -123 -55 -275 -65 -275 -3 0 -19 18 -34 41 -16 22 -46 59 -67 82
-139 154 -138 153 -129 200 57 293 59 536 5 776 -27 119 -49 180 -107 295
l-40 78 43 -33 c24 -18 69 -55 101 -82z m347 -339 c116 -154 210 -345 259
-525 38 -144 51 -242 51 -398 0 -193 -20 -328 -69 -475 -39 -117 -115 -285
-134 -297 -5 -3 -16 2 -23 12 -12 16 -11 23 7 49 30 45 64 123 103 235 114
326 106 671 -21 996 -42 107 -167 351 -231 450 -55 87 -22 60 58 -47z m-3275
-688 c3 -5 1 -10 -4 -10 -6 0 -11 5 -11 10 0 6 2 10 4 10 3 0 8 -4 11 -10z
m-30 -11 c-5 -7 10 -10 45 -8 36 2 54 -1 61 -12 5 -7 9 -9 9 -4 0 6 7 2 15 -9
9 -12 21 -17 35 -13 18 5 19 3 8 -11 -11 -13 -11 -15 5 -9 9 3 17 3 17 -2 0
-14 103 -31 118 -18 10 8 12 7 10 -3 -3 -14 135 -53 165 -46 9 2 15 0 11 -5
-3 -5 0 -9 5 -9 6 0 12 23 12 53 l2 52 7 -65 c17 -163 108 -244 182 -162 15
18 28 39 28 46 0 8 14 15 34 18 19 2 33 1 31 -2 -7 -11 143 -41 172 -35 21 4
23 3 8 -3 -16 -7 -13 -10 20 -15 21 -4 41 -4 44 -2 2 3 -3 5 -12 5 -10 0 -17
5 -17 10 0 17 29 11 50 -10 14 -14 37 -22 68 -24 l47 -2 5 -55 c3 -30 9 -60
13 -66 5 -8 29 -13 58 -13 55 0 117 26 161 67 25 24 31 25 110 20 46 -4 169
-11 273 -17 252 -15 350 -36 490 -104 178 -87 315 -189 439 -326 55 -61 140
-184 152 -222 4 -10 9 -18 13 -18 4 0 20 -22 36 -50 16 -27 32 -50 36 -50 4 0
9 -9 12 -21 4 -15 2 -19 -9 -15 -8 3 -14 1 -14 -3 0 -5 7 -11 15 -15 19 -7 20
-26 1 -26 -8 0 -25 17 -37 38 -13 20 -26 39 -29 42 -4 3 -9 11 -11 17 -2 7 -4
-67 -5 -165 0 -148 -4 -190 -22 -254 -66 -243 -188 -419 -397 -579 -89 -67
-304 -189 -334 -189 -8 0 -11 -3 -8 -6 7 -8 -66 -44 -128 -64 -22 -7 -53 -18
-70 -26 -61 -27 -261 -77 -375 -94 -238 -36 -277 -39 -495 -40 -170 0 -269 5
-380 19 -82 11 -157 22 -165 25 -8 3 -64 15 -125 26 -172 31 -278 55 -305 70
-14 7 -26 12 -28 11 -8 -7 -61 12 -64 24 -2 11 -5 11 -15 0 -10 -11 1 -22 60
-58 224 -139 403 -220 642 -291 l50 -15 -45 5 c-25 3 -119 21 -210 41 -366 78
-647 226 -868 457 -50 52 -105 117 -123 143 -18 26 -48 68 -67 92 -142 188
-186 484 -103 709 37 103 83 171 168 253 l67 64 9 -35 c18 -71 22 -47 9 53
-23 173 4 390 67 531 26 61 101 175 148 227 58 65 181 159 199 152 8 -3 14 -2
13 3 -2 14 0 24 7 24 3 0 2 -5 -1 -11z m-1076 -182 c108 -83 233 -150 394
-212 89 -34 98 -40 92 -59 -22 -76 -44 -206 -50 -291 -7 -100 -8 -100 -49
-145 -59 -64 -101 -127 -146 -222 -55 -115 -81 -221 -87 -358 -14 -317 116
-620 382 -885 226 -226 500 -379 864 -482 69 -20 127 -36 128 -37 1 -1 5 -44
8 -97 l7 -95 -63 -46 c-77 -55 -190 -172 -243 -251 -34 -53 -156 -282 -168
-317 -5 -17 -113 41 -288 155 -168 110 -281 201 -429 347 -420 416 -670 913
-762 1513 -27 172 -36 500 -20 671 30 308 111 619 226 871 l38 83 54 -50 c30
-28 81 -70 112 -93z m2066 73 c-3 -5 -12 -10 -18 -10 -7 0 -6 4 3 10 19 12 23
12 15 0z m125 -110 c0 -11 -4 -20 -10 -20 -5 0 -10 9 -10 20 0 11 5 20 10 20
6 0 10 -9 10 -20z m40 -40 c0 -11 -4 -20 -9 -20 -11 0 -22 26 -14 34 12 12 23
5 23 -14z m2746 -340 c56 -223 68 -331 69 -630 0 -336 -22 -502 -105 -797
-130 -457 -340 -818 -679 -1167 -96 -98 -306 -281 -337 -293 -7 -2 -45 7 -84
21 -39 14 -82 26 -96 26 -38 0 -33 41 8 59 44 20 161 137 189 191 19 36 24 60
24 126 0 74 -3 87 -38 156 -42 83 -106 161 -179 219 l-49 38 38 16 c85 36 240
151 343 254 160 161 268 333 334 531 52 156 67 239 73 400 l6 145 51 56 c66
73 136 190 196 331 79 184 117 339 136 553 l8 80 29 -90 c16 -49 44 -151 63
-225z m-749 -405 c50 -60 50 -60 61 -163 30 -266 -3 -503 -101 -722 -55 -123
-117 -215 -212 -317 -128 -138 -226 -205 -463 -315 -203 -95 -208 -95 -70 -2
256 174 468 393 593 614 37 65 87 180 79 180 -2 0 8 30 21 67 14 37 30 99 36
138 5 38 12 84 15 100 4 17 6 93 6 170 0 107 -5 162 -21 232 -11 51 -21 96
-21 100 0 8 8 0 77 -82z m-250 -417 c-3 -8 -6 -5 -6 6 -1 11 2 17 5 13 3 -3 4
-12 1 -19z m-525 -1535 c-8 -224 30 -426 114 -615 l45 -102 -23 -18 c-39 -29
-270 -127 -415 -174 -419 -138 -899 -176 -1298 -104 -108 19 -305 67 -314 75
-2 3 19 74 47 157 89 266 112 385 121 648 l6 185 30 -3 c17 -2 64 -10 105 -19
115 -25 469 -22 670 6 85 11 170 25 189 31 19 5 36 8 38 7 1 -2 6 -47 11 -100
5 -54 12 -100 14 -103 12 -12 288 123 288 142 0 17 1 17 34 4 18 -7 26 -17 26
-35 0 -32 46 -83 85 -94 46 -13 95 7 119 49 16 27 20 50 19 102 -2 55 0 66 12
61 8 -3 15 0 15 7 0 6 4 9 9 6 4 -3 17 1 27 9 10 8 22 15 25 15 4 0 4 -62 1
-137z m300 14 c80 -108 80 -131 -3 -209 -62 -59 -89 -72 -89 -40 0 10 28 37
66 65 l65 47 -21 29 c-11 17 -41 47 -65 69 -43 37 -45 42 -45 92 0 48 1 51 17
39 9 -8 43 -49 75 -92z m-2282 -593 c-96 -291 -94 -287 -132 -279 -17 4 -46
14 -65 21 -28 12 -33 19 -28 37 14 47 78 173 122 241 43 65 162 200 169 193 2
-2 -28 -97 -66 -213z"/>
<path d="M2775 4842 c-77 -33 -102 -51 -153 -107 -59 -64 -108 -160 -122 -238
-10 -52 -1 -178 16 -234 3 -13 2 -23 -4 -23 -5 0 -13 15 -17 33 l-8 32 -5 -30
c-2 -17 2 -33 10 -40 8 -5 12 -18 10 -27 -4 -21 57 -140 98 -190 34 -41 118
-100 131 -92 5 3 9 15 9 27 0 12 22 67 49 123 61 122 134 198 258 262 74 39
82 46 104 94 32 71 34 213 4 273 -25 51 -80 105 -130 130 -56 27 -195 31 -250
7z m250 -136 c38 -16 75 -68 75 -104 0 -32 -25 -76 -56 -101 -32 -25 -99 -28
-132 -5 -70 49 -67 169 6 208 35 19 64 20 107 2z m-263 -213 c20 -18 23 -54 8
-84 -15 -28 -74 -26 -94 3 -21 30 -20 54 4 78 24 24 57 26 82 3z m32 -189 c31
-31 11 -84 -33 -84 -16 0 -41 30 -41 50 0 22 25 50 45 50 7 0 21 -7 29 -16z"/>
<path d="M3640 4797 c-32 -16 -70 -73 -70 -106 0 -35 34 -89 65 -103 55 -25
158 40 170 107 15 79 -86 142 -165 102z"/>
<path d="M4642 4705 c-85 -19 -163 -56 -201 -95 -17 -18 -31 -29 -31 -25 0 16
-52 -40 -89 -95 -125 -185 -132 -401 -21 -595 71 -125 223 -226 369 -246 258
-36 483 125 546 392 20 85 19 231 -1 300 -76 259 -327 420 -572 364z m236
-193 c49 -22 87 -85 87 -143 0 -143 -192 -203 -288 -90 -68 81 -32 210 68 246
43 15 81 12 133 -13z m-328 -282 c45 -45 8 -140 -55 -140 -63 0 -99 91 -55
138 27 29 83 29 110 2z m69 -229 c8 -5 14 -24 14 -42 0 -51 -53 -78 -87 -43
-19 18 -21 65 -4 82 14 14 57 16 77 3z"/>
<path d="M2905 3910 c-28 -11 -41 -29 -49 -67 -7 -29 -4 -33 41 -58 27 -14 64
-46 83 -70 41 -52 56 -56 65 -15 16 75 -26 183 -80 206 -19 8 -36 14 -37 13
-2 0 -12 -4 -23 -9z"/>
<path d="M3513 3891 c-55 -26 -95 -93 -96 -161 0 -26 5 -55 12 -64 11 -13 19
-9 61 33 38 38 59 51 92 56 55 9 78 30 78 70 0 66 -74 100 -147 66z"/>
<path d="M2221 3765 c-13 -31 -28 -164 -18 -155 3 3 8 31 11 62 3 32 10 67 16
78 6 12 9 26 7 33 -3 7 -10 -1 -16 -18z"/>
<path d="M2541 3654 c0 -11 3 -14 6 -6 3 7 2 16 -1 19 -3 4 -6 -2 -5 -13z"/>
<path d="M2202 3580 c0 -14 2 -19 5 -12 2 6 2 18 0 25 -3 6 -5 1 -5 -13z"/>
<path d="M2524 3552 c-4 -18 -10 -29 -14 -27 -5 3 -11 -3 -15 -14 -3 -11 -17
-27 -31 -36 -25 -16 -25 -38 1 -29 8 4 13 9 11 13 -6 9 21 31 30 23 4 -4 4 -1
0 6 -4 6 -3 12 3 12 11 0 34 71 26 79 -3 2 -8 -10 -11 -27z"/>
<path d="M2220 3467 c0 -14 4 -28 8 -31 10 -6 10 40 0 50 -5 4 -8 -4 -8 -19z"/>
<path d="M4960 3455 c0 -8 -4 -15 -10 -15 -5 0 -10 -9 -10 -20 0 -11 5 -20 10
-20 6 0 10 -18 10 -40 l0 -40 40 0 c33 0 40 -3 40 -20 0 -11 7 -20 15 -20 23
0 19 -53 -5 -70 -11 -8 -20 -23 -20 -33 0 -12 -7 -17 -22 -16 -51 5 -68 -1
-68 -21 0 -16 -7 -20 -30 -20 -19 0 -30 -5 -30 -14 0 -14 -42 -26 -91 -26 -19
0 -29 5 -29 15 0 8 -7 15 -15 15 -36 0 -8 -27 66 -63 58 -28 136 -36 156 -16
6 6 18 12 27 13 16 2 66 38 102 74 37 35 55 192 22 192 -6 0 -8 13 -6 29 3 18
0 28 -6 24 -5 -4 -7 0 -3 9 7 19 -14 39 -68 62 -22 9 -48 21 -57 27 -14 7 -18
5 -18 -6z m117 -51 c-3 -3 -12 -4 -19 -1 -8 3 -5 6 6 6 11 1 17 -2 13 -5z m25
-171 c-10 -26 -10 -24 -11 22 0 42 2 46 11 28 7 -15 7 -30 0 -50z"/>
<path d="M2720 3452 c-27 -8 -40 -35 -40 -81 0 -150 184 -315 350 -315 71 0
114 13 173 52 l37 25 23 -21 c12 -11 49 -33 82 -49 50 -23 76 -28 159 -31 59
-3 117 1 145 9 160 43 311 196 311 313 0 47 -6 58 -37 75 -34 17 -71 -5 -99
-61 -57 -113 -152 -177 -273 -186 -102 -7 -166 15 -239 83 -73 68 -96 70 -140
16 -36 -45 -104 -81 -152 -81 -42 0 -110 34 -150 75 -17 18 -44 63 -59 101
-28 69 -51 88 -91 76z"/>
<path d="M5021 3457 c2 -1 13 -9 24 -17 19 -14 19 -14 6 3 -7 9 -18 17 -24 17
-6 0 -8 -1 -6 -3z"/>
<path d="M2256 3432 c-3 -6 4 -12 17 -16 34 -9 55 -5 27 5 -17 6 -2 7 47 4 40
-2 75 0 78 4 2 5 -33 9 -79 10 -46 1 -87 -2 -90 -7z"/>
<path d="M4890 3415 c0 -8 7 -15 15 -15 8 0 15 7 15 15 0 8 -7 15 -15 15 -8 0
-15 -7 -15 -15z"/>
<path d="M2629 2866 c29 -30 28 -30 28 -11 0 8 -4 12 -9 9 -4 -3 -8 -1 -8 4 0
6 -8 13 -17 16 -13 5 -11 0 6 -18z"/>
<path d="M2690 2822 c0 -12 55 -42 77 -42 17 1 17 1 -2 12 -11 7 -22 11 -25
10 -3 0 -15 6 -27 14 -13 8 -23 11 -23 6z"/>
<path d="M4947 1879 c-73 -57 -46 -218 43 -264 56 -29 125 -10 148 40 30 66 0
183 -58 225 -37 27 -99 26 -133 -1z"/>
</g>
</svg>
